<?xml version="1.0" encoding="UTF-8"?><svg id="_レイヤー_1" xmlns="http://www.w3.org/2000/svg" viewBox="0 0 500 500"><defs><style>.cls-1{fill:#fff;}.cls-2{fill:none;}</style></defs><path id="_パス_47" class="cls-1" d="m250,27.91c122.68,0,222.12,99.45,222.12,222.12s-99.45,222.12-222.12,222.12S27.88,372.71,27.88,250.04h0c.38-111.09,82.45-204.97,192.5-220.2,9.82-1.35,19.72-2,29.63-1.96m0-27.88C111.93,0,0,111.93,0,250s111.93,250,250,250,249.98-111.91,250-249.96C500,111.97,388.08.04,250.01.04c0,0,0,0-.01,0v-.04Z"/><rect id="_長方形_27" class="cls-1" x="158.35" y="92.43" width="33.5" height="50.25" transform="translate(7.28 245.29) rotate(-71.15)"/><rect id="_長方形_28" class="cls-1" x="125.88" y="187.5" width="33.5" height="50.25" transform="translate(-104.67 278.91) rotate(-71.15)"/><rect id="_長方形_29" class="cls-1" x="93.46" y="282.46" width="33.5" height="50.25" transform="translate(-216.49 312.5) rotate(-71.15)"/><path id="_パス_48" class="cls-1" d="m100,413.91l6.5-19-34.5-11.75c8.35,11.1,17.73,21.4,28,30.75Z"/><path id="_パス_49" class="cls-1" d="m193.76,88.63l31.26,11.38-21.12,62.51-31.63-10.9-10.9,31.75,31.67,10.92-21.63,63.24-31.63-10.9-10.9,31.75,31.63,10.9-21.63,63.24-31.62-10.85-10.76,32.12,31.63,10.9-14,40.35c9.11,7.12,18.77,13.51,28.87,19.12l91.88-269.12.73-2,22.12-64.88,4.78-13.72-63.24-21.63-5.5,15.81Z"/><path id="_パス_50" class="cls-1" d="m453.38,160.91l-166.63-57-120.13,352c113.56,46.22,243.09-8.37,289.31-121.93,22.64-55.64,21.78-118.08-2.41-173.06h-.15Z"/><circle id="_楕円形_1" class="cls-2" cx="250" cy="250.04" r="222.12"/></svg>